<svg width="148" height="73" viewBox="0 0 148 73" fill="none" xmlns="http://www.w3.org/2000/svg">
<g clip-path="url(#clip0_1_1104)">
<path d="M40.8535 71.4453H32.1461C30.5922 71.4453 29.3325 70.1856 29.3325 68.6317V64.2336H43.6671V68.6317C43.6671 70.1856 42.4074 71.4453 40.8535 71.4453Z" fill="#685E68"/>
<path d="M48.1665 55.9743V60.261C48.1665 64.256 44.9267 67.4959 40.9305 67.4959H32.0689C28.0727 67.4959 24.8329 64.256 24.8329 60.261V55.9743L36.4771 51.8798L48.1665 55.9743Z" fill="#F9F7F8"/>
<path d="M36.924 67.4959H32.0689C28.0727 67.4959 24.8329 64.256 24.8329 60.261V55.9743L36.4771 51.8802L38.4109 52.5572L32.5906 55.9743V60.261C32.5905 64.256 34.5302 67.4959 36.924 67.4959Z" fill="#DEDBEE"/>
<path d="M55.922 32.8623C55.922 37.2296 54.4806 41.2585 52.0485 44.503C49.5603 47.8199 48.1667 51.8277 48.1667 55.9743H24.8329C24.8329 51.8802 23.5258 47.8805 21.0445 44.6255C18.5283 41.3237 17.0448 37.1923 17.0787 32.7141C17.1593 21.8951 25.951 13.296 36.7687 13.443C47.3719 13.5866 55.922 22.2266 55.922 32.8623Z" fill="#FFD15B"/>
<path d="M27.9465 32.7141C27.9267 37.1923 28.8149 41.3237 30.3215 44.6255C31.8072 47.8805 32.5904 51.8802 32.5904 55.9743H24.8327C24.8327 51.8802 23.5255 47.8805 21.0442 44.6255C18.528 41.3237 17.0446 37.1923 17.0784 32.7141C17.159 21.8951 25.9508 13.296 36.7685 13.443C37.3228 13.45 37.8714 13.4815 38.4141 13.5352C32.5577 14.4946 27.9921 22.6432 27.9465 32.7141Z" fill="#FFC344"/>
<path d="M36.5003 43.8347C35.007 43.8347 33.7963 42.6241 33.7963 41.1308V39.9838C33.7963 37.3149 35.4769 34.9277 37.9784 34.0433C39.8599 33.378 41.0724 31.5172 40.9266 29.5184C40.767 27.3295 38.9948 25.5709 36.8044 25.4275C34.4875 25.2745 32.4234 26.9476 32.1043 29.2337C32.0758 29.4381 32.0614 29.6476 32.0614 29.8563C32.0614 31.3496 30.8508 32.5602 29.3575 32.5602C27.8642 32.5602 26.6536 31.3496 26.6536 29.8563C26.6536 29.3986 26.6855 28.9376 26.7485 28.4865C27.457 23.4093 32.0292 19.6946 37.1577 20.0312C42.0264 20.35 45.9653 24.2597 46.3201 29.1253C46.6424 33.5476 43.9535 37.6666 39.781 39.1419C39.436 39.2638 39.2041 39.6023 39.2041 39.984V41.1309C39.2042 42.6241 37.9936 43.8347 36.5003 43.8347Z" fill="#FE9738"/>
<path d="M36.5003 51.8799C35.007 51.8799 33.7964 50.6693 33.7964 49.176V49.1536C33.7964 47.6603 35.007 46.4497 36.5003 46.4497C37.9936 46.4497 39.2043 47.6603 39.2043 49.1536V49.176C39.2043 50.6693 37.9936 51.8799 36.5003 51.8799Z" fill="#FE9738"/>
<path d="M29.1387 28.4868C29.0752 28.9379 29.0442 29.3984 29.0442 29.8563C29.0442 30.9206 29.6587 31.8416 30.5528 32.2819C30.1922 32.4603 29.7871 32.5601 29.3575 32.5601C27.8652 32.5601 26.6537 31.35 26.6537 29.8563C26.6537 29.3984 26.686 28.9379 26.7496 28.4868C27.4574 23.4086 32.0303 19.6946 37.1584 20.0308C37.342 20.0429 37.5244 20.0605 37.7054 20.0836C33.3633 20.6184 29.7614 24.0271 29.1387 28.4868Z" fill="#FE7D43"/>
<path d="M40.3687 34.043C37.8674 34.9276 36.186 37.3155 36.186 39.9841V41.1308C36.186 42.195 36.8018 43.1161 37.6959 43.5564C37.3353 43.7347 36.93 43.8346 36.5006 43.8346C35.0068 43.8346 33.7968 42.6245 33.7968 41.1308V39.9841C33.7968 37.3153 35.4768 34.9275 37.9795 34.043C39.8608 33.3771 41.0723 31.5173 40.9264 29.5185C40.79 27.6385 39.4638 26.0759 37.704 25.583C38.1781 25.4492 38.6805 25.3938 39.1951 25.4277C41.3857 25.5709 43.1576 27.3294 43.3171 29.5186C43.4629 31.5173 42.25 33.3771 40.3687 34.043Z" fill="#FE7D43"/>
<path d="M37.696 51.6016C37.3354 51.78 36.9301 51.8798 36.5007 51.8798C35.007 51.8798 33.7969 50.6697 33.7969 49.176V49.1531C33.7969 47.6608 35.007 46.4493 36.5007 46.4493C36.9301 46.4493 37.3353 46.5493 37.696 46.7274C36.8019 47.1691 36.1861 48.0901 36.1861 49.1531V49.176C36.186 50.2402 36.8019 51.1613 37.696 51.6016Z" fill="#FE7D43"/>
<path d="M9.08243 36.776H5.82064C4.5664 36.776 3.54968 35.7593 3.54968 34.5051C3.54968 33.2508 4.5664 32.2341 5.82064 32.2341H9.08243C10.3367 32.2341 11.3534 33.2508 11.3534 34.5051C11.3535 35.7592 10.3367 36.776 9.08243 36.776Z" fill="#FFD15B"/>
<path d="M67.1792 36.7758H63.9174C62.6632 36.7758 61.6465 35.7591 61.6465 34.5048C61.6465 33.2506 62.6632 32.2339 63.9174 32.2339H67.1792C68.4335 32.2339 69.4502 33.2506 69.4502 34.5048C69.4502 35.7589 68.4335 36.7758 67.1792 36.7758Z" fill="#FFD15B"/>
<path d="M18.7187 55.4977L16.4123 57.8041C15.5254 58.691 14.0875 58.691 13.2006 57.8041C12.3137 56.9172 12.3137 55.4793 13.2006 54.5923L15.507 52.2859C16.3939 51.399 17.8318 51.399 18.7187 52.2859C19.6055 53.1729 19.6055 54.6109 18.7187 55.4977Z" fill="#FFD15B"/>
<path d="M59.7992 14.417L57.4928 16.7234C56.6058 17.6103 55.168 17.6103 54.281 16.7234C53.3941 15.8365 53.3941 14.3986 54.281 13.5117L56.5874 11.2053C57.4743 10.3184 58.9122 10.3184 59.7992 11.2053C60.6861 12.0922 60.6861 13.5302 59.7992 14.417Z" fill="#FFD15B"/>
<path d="M38.7709 3.82564V7.08744C38.7709 8.34167 37.7542 9.35839 36.5 9.35839C35.2457 9.35839 34.229 8.34167 34.229 7.08744V3.82564C34.229 2.57141 35.2457 1.55469 36.5 1.55469C37.7542 1.55469 38.7709 2.57141 38.7709 3.82564Z" fill="#FFD15B"/>
<path d="M57.4928 52.2862L59.7992 54.5926C60.6861 55.4795 60.6861 56.9174 59.7992 57.8043C58.9122 58.6912 57.4743 58.6912 56.5874 57.8043L54.281 55.4979C53.3941 54.611 53.3941 53.1731 54.281 52.2862C55.168 51.3993 56.606 51.3993 57.4928 52.2862Z" fill="#FFD15B"/>
<path d="M16.4122 11.2056L18.7186 13.512C19.6055 14.399 19.6055 15.8368 18.7186 16.7238C17.8317 17.6107 16.3938 17.6107 15.5068 16.7238L13.2006 14.4172C12.3137 13.5303 12.3137 12.0924 13.2006 11.2055C14.0874 10.3187 15.5254 10.3187 16.4122 11.2056Z" fill="#FFD15B"/>
<path d="M56.9764 32.862C56.9764 27.4422 54.8794 22.3336 51.0718 18.4771C47.2675 14.6241 42.1929 12.4617 36.7832 12.3886C36.688 12.3873 36.5932 12.3866 36.4984 12.3866C29.1173 12.3866 22.3087 16.3323 18.678 22.7342C18.3907 23.2409 18.5686 23.8847 19.0753 24.172C19.5815 24.4591 20.2256 24.2815 20.513 23.7749C23.8103 17.9602 30.0354 14.4016 36.7544 14.4978C41.6069 14.5635 46.1585 16.503 49.5709 19.9591C52.9863 23.4184 54.8671 28.0008 54.8671 32.862C54.8671 36.867 53.6008 40.6738 51.2054 43.87C48.7445 47.1498 47.3496 50.9501 47.1395 54.9191H25.8592C25.6486 50.9454 24.2555 47.0981 21.8828 43.986C19.3987 40.7257 18.102 36.8308 18.1329 32.7223C18.1448 31.1378 18.3561 29.5678 18.761 28.0553C18.9116 27.4927 18.5775 26.9145 18.0148 26.7637C17.453 26.6134 16.8739 26.9471 16.7232 27.5099C16.272 29.195 16.0366 30.9434 16.0234 32.7065C15.9891 37.2865 17.4349 41.629 20.205 45.2648C22.5088 48.2864 23.7775 52.0896 23.7775 55.9738V60.2614C23.7775 63.4663 25.6077 66.2501 28.2771 67.6286V68.6314C28.2771 70.7646 30.0125 72.5 32.1457 72.5H40.8534C42.9866 72.5 44.722 70.7646 44.722 68.6314V67.6272C45.576 67.188 46.3569 66.6021 47.0197 65.885C47.4151 65.4572 47.3888 64.79 46.9611 64.3947C46.5334 63.9992 45.8662 64.0255 45.4706 64.4533C44.3034 65.7161 42.6488 66.4403 40.9309 66.4403H32.0687C28.6601 66.4403 25.8869 63.6685 25.8869 60.2613V57.0283H47.1114V60.2613C47.1114 60.3893 47.1077 60.5063 47.0999 60.6193C47.0599 61.2004 47.4987 61.7038 48.0799 61.7437C48.6594 61.7852 49.1645 61.3449 49.2043 60.7637C49.2154 60.6022 49.2208 60.4379 49.2208 60.2613V55.9736C49.2208 52.0848 50.4903 48.3371 52.8928 45.1354C55.5644 41.571 56.9764 37.3269 56.9764 32.862ZM40.9311 68.5499C41.4998 68.5499 42.0631 68.4902 42.6128 68.3756V68.6314C42.6128 69.6015 41.8236 70.3906 40.8536 70.3906H32.1458C31.1759 70.3906 30.3866 69.6015 30.3866 68.6314V68.378C30.93 68.4904 31.4926 68.5499 32.0689 68.5499H40.9311Z" fill="black"/>
<path d="M40.2588 40.0907C44.8057 38.4194 47.7257 33.8986 47.3721 29.0486C46.9794 23.6609 42.6176 19.3318 37.2267 18.9788C31.5525 18.606 26.4886 22.7185 25.7039 28.3408C25.6342 28.8406 25.5989 29.3505 25.5989 29.8563C25.5989 31.9289 27.285 33.6149 29.3576 33.6149C31.43 33.6149 33.1163 31.9289 33.1163 29.8563C33.1163 29.696 33.1272 29.5357 33.149 29.3795C33.3922 27.6368 34.9675 26.3643 36.7357 26.4799C38.4038 26.5892 39.7532 27.9284 39.8747 29.595C39.9859 31.1214 39.0616 32.5416 37.627 33.0489C34.705 34.082 32.7418 36.869 32.7418 39.984V41.1309C32.7418 43.2035 34.4279 44.8896 36.5004 44.8896C38.5729 44.8896 40.259 43.2035 40.259 41.1309V40.0907H40.2588ZM38.1494 39.9839V41.1308C38.1494 42.0402 37.4095 42.78 36.5001 42.78C35.5907 42.78 34.8509 42.0402 34.8509 41.1308V39.9839C34.8509 37.761 36.249 35.7733 38.3298 35.0375C40.6583 34.2143 42.1586 31.9131 41.9783 29.4416C41.7807 26.7308 39.5859 24.5527 36.8738 24.375C36.752 24.367 36.631 24.3631 36.5104 24.3631C33.7956 24.3631 31.4379 26.3764 31.0596 29.0878C31.0243 29.34 31.0065 29.5986 31.0065 29.8563C31.0065 30.7657 30.2666 31.5056 29.3572 31.5056C28.4478 31.5056 27.7078 30.7657 27.7078 29.8563C27.7078 29.4477 27.7364 29.0358 27.7926 28.6322C28.4253 24.0989 32.5103 20.7836 37.0885 21.0836C41.4349 21.3682 44.9513 24.8582 45.268 29.2019C45.5558 33.1515 43.1549 36.8301 39.4292 38.1474C38.6639 38.418 38.1494 39.156 38.1494 39.9839Z" fill="black"/>
<path d="M36.5002 45.3952C34.4278 45.3952 32.7416 47.0813 32.7416 49.1538V49.1762C32.7416 51.2487 34.4277 52.9348 36.5002 52.9348C38.5727 52.9348 40.2588 51.2487 40.2588 49.1762V49.1538C40.2587 47.0813 38.5726 45.3952 36.5002 45.3952ZM38.1493 49.1762C38.1493 50.0856 37.4095 50.8254 36.5001 50.8254C35.5906 50.8254 34.8508 50.0856 34.8508 49.1762V49.1538C34.8508 48.2444 35.5906 47.5046 36.5001 47.5046C37.4095 47.5046 38.1493 48.2444 38.1493 49.1538V49.1762Z" fill="black"/>
<path d="M9.08243 31.1793H5.82064C3.98689 31.1793 2.495 32.6712 2.495 34.505C2.495 36.3387 3.98689 37.8306 5.82064 37.8306H9.08243C10.9162 37.8306 12.4081 36.3387 12.4081 34.505C12.4081 32.6712 10.9162 31.1793 9.08243 31.1793ZM9.08243 35.7212H5.82064C5.14985 35.7212 4.60437 35.1756 4.60437 34.505C4.60437 33.8343 5.14999 33.2887 5.82064 33.2887H9.08243C9.75321 33.2887 10.2987 33.8343 10.2987 34.505C10.2987 35.1756 9.75321 35.7212 9.08243 35.7212Z" fill="black"/>
<path d="M67.1792 31.1793H63.9174C62.0837 31.1793 60.5918 32.6712 60.5918 34.505C60.5918 36.3387 62.0837 37.8306 63.9174 37.8306H67.1792C69.013 37.8306 70.5049 36.3387 70.5049 34.505C70.5049 32.6712 69.013 31.1793 67.1792 31.1793ZM67.1792 35.7212H63.9174C63.2467 35.7212 62.7012 35.1756 62.7012 34.505C62.7012 33.8343 63.2468 33.2887 63.9174 33.2887H67.1792C67.85 33.2887 68.3955 33.8343 68.3955 34.505C68.3955 35.1756 67.85 35.7212 67.1792 35.7212Z" fill="black"/>
<path d="M14.7611 51.5404L12.4547 53.8468C11.158 55.1435 11.158 57.2534 12.4547 58.55C13.1031 59.1983 13.9548 59.5226 14.8064 59.5226C15.6581 59.5226 16.5096 59.1983 17.1582 58.55L19.4646 56.2436C20.7611 54.9469 20.7613 52.8371 19.4646 51.5404C18.1675 50.2436 16.0579 50.2438 14.7611 51.5404ZM17.9728 54.7521L15.6664 57.0585C15.1924 57.5326 14.4205 57.5327 13.9465 57.0585C13.4721 56.5842 13.4721 55.8126 13.9465 55.3384L16.2528 53.032C16.4899 52.7948 16.8013 52.6764 17.1129 52.6764C17.4243 52.6764 17.7359 52.7949 17.9728 53.032C18.4472 53.5062 18.4472 54.2778 17.9728 54.7521Z" fill="black"/>
<path d="M55.8869 18.442C56.7387 18.442 57.5902 18.1178 58.2387 17.4695L60.5451 15.1631C61.8418 13.8664 61.8418 11.7566 60.5451 10.4599C59.2484 9.16333 57.1386 9.16305 55.8418 10.4599L53.5354 12.7663C52.2387 14.063 52.2387 16.1729 53.5354 17.4695C54.1838 18.1178 55.0354 18.442 55.8869 18.442ZM55.0269 14.2578L57.3334 11.9514C57.5705 11.7143 57.8818 11.5957 58.1935 11.5957C58.5049 11.5957 58.8164 11.7143 59.0534 11.9514C59.5277 12.4257 59.5277 13.1972 59.0534 13.6715L56.747 15.9779C56.2729 16.4519 55.501 16.4522 55.027 15.9779C54.5527 15.5037 54.5527 14.7321 55.0269 14.2578Z" fill="black"/>
<path d="M36.5 10.4132C38.3337 10.4132 39.8256 8.92133 39.8256 7.08758V3.82564C39.8256 1.99189 38.3337 0.5 36.5 0.5C34.6662 0.5 33.1743 1.99189 33.1743 3.82564V7.08744C33.1743 8.92133 34.6662 10.4132 36.5 10.4132ZM35.2837 3.82564C35.2837 3.15486 35.8293 2.60938 36.5 2.60938C37.1706 2.60938 37.7162 3.155 37.7162 3.82564V7.08744C37.7162 7.75822 37.1706 8.3037 36.5 8.3037C35.8293 8.3037 35.2837 7.75808 35.2837 7.08744V3.82564Z" fill="black"/>
<path d="M58.2387 51.5404C56.9416 50.2436 54.8318 50.2438 53.5353 51.5404C52.2386 52.8371 52.2388 54.947 53.5353 56.2436L55.8417 58.55C56.4902 59.1983 57.3418 59.5226 58.1935 59.5226C59.0452 59.5226 59.8967 59.1983 60.5452 58.55C61.8419 57.2533 61.8419 55.1434 60.5452 53.8468L58.2387 51.5404ZM59.0535 57.0585C58.5794 57.5328 57.8075 57.5327 57.3335 57.0585L55.0271 54.7521C54.5528 54.2778 54.5528 53.5062 55.0271 53.032C55.2642 52.7949 55.5755 52.6764 55.887 52.6764C56.1986 52.6764 56.5101 52.7949 56.7471 53.032L59.0535 55.3384C59.5278 55.8126 59.5278 56.5843 59.0535 57.0585Z" fill="black"/>
<path d="M14.7612 17.4695C15.4096 18.1178 16.2612 18.442 17.113 18.442C17.9646 18.442 18.8161 18.1178 19.4647 17.4695C20.7614 16.1728 20.7614 14.0628 19.4647 12.7663L17.1583 10.4599C15.8616 9.16346 13.7518 9.16318 12.4549 10.4599C11.1582 11.7566 11.1582 13.8664 12.4549 15.1631L14.7612 17.4695ZM13.9464 11.9513C14.1835 11.7143 14.4949 11.5957 14.8063 11.5957C15.118 11.5957 15.4294 11.7143 15.6664 11.9513L17.9728 14.2577C18.4471 14.7321 18.4471 15.5037 17.9728 15.9779C17.4987 16.4522 16.7269 16.4521 16.2528 15.9779L13.9464 13.6715C13.4721 13.1973 13.4721 12.4257 13.9464 11.9513Z" fill="black"/>
</g>
<path d="M76.948 17.584C76.752 17.5933 76.598 17.542 76.486 17.43C76.374 17.318 76.318 17.178 76.318 17.01C76.318 16.8793 76.36 16.7673 76.444 16.674C76.5187 16.5713 76.64 16.5153 76.808 16.506L77.242 16.464C77.6993 16.4267 78.0493 16.268 78.292 15.988C78.5347 15.708 78.656 15.3253 78.656 14.84V8.19C78.656 7.97533 78.712 7.812 78.824 7.7C78.936 7.588 79.0947 7.532 79.3 7.532C79.5053 7.532 79.664 7.588 79.776 7.7C79.888 7.812 79.944 7.97533 79.944 8.19V14.84C79.944 15.3907 79.846 15.862 79.65 16.254C79.4633 16.6367 79.1833 16.94 78.81 17.164C78.4367 17.3787 77.97 17.5093 77.41 17.556L76.948 17.584ZM85.0548 17.626C84.3828 17.626 83.7994 17.4813 83.3048 17.192C82.8101 16.9027 82.4274 16.492 82.1568 15.96C81.8861 15.428 81.7508 14.8027 81.7508 14.084C81.7508 13.5427 81.8254 13.0573 81.9748 12.628C82.1334 12.1893 82.3574 11.816 82.6468 11.508C82.9361 11.2 83.2814 10.9667 83.6828 10.808C84.0934 10.64 84.5508 10.556 85.0548 10.556C85.7268 10.556 86.3101 10.7007 86.8048 10.99C87.2994 11.2793 87.6821 11.69 87.9528 12.222C88.2234 12.7447 88.3588 13.3653 88.3588 14.084C88.3588 14.6253 88.2794 15.1153 88.1208 15.554C87.9714 15.9927 87.7521 16.366 87.4628 16.674C87.1734 16.982 86.8234 17.22 86.4128 17.388C86.0114 17.5467 85.5588 17.626 85.0548 17.626ZM85.0548 16.618C85.4654 16.618 85.8201 16.52 86.1188 16.324C86.4268 16.128 86.6601 15.8433 86.8188 15.47C86.9868 15.0967 87.0708 14.6347 87.0708 14.084C87.0708 13.2627 86.8888 12.6373 86.5248 12.208C86.1608 11.7787 85.6708 11.564 85.0548 11.564C84.6534 11.564 84.2988 11.662 83.9908 11.858C83.6921 12.0447 83.4588 12.3247 83.2908 12.698C83.1228 13.0713 83.0388 13.5333 83.0388 14.084C83.0388 14.9053 83.2208 15.5353 83.5848 15.974C83.9581 16.4033 84.4481 16.618 85.0548 16.618ZM93.0568 20.146C92.5528 20.146 92.0628 20.09 91.5868 19.978C91.1201 19.866 90.6954 19.6933 90.3128 19.46C90.1914 19.3853 90.1074 19.2967 90.0608 19.194C90.0234 19.1007 90.0141 19.0027 90.0328 18.9C90.0608 18.7973 90.1074 18.704 90.1728 18.62C90.2474 18.5453 90.3314 18.494 90.4248 18.466C90.5274 18.4473 90.6301 18.4707 90.7328 18.536C91.1434 18.7693 91.5354 18.928 91.9088 19.012C92.2821 19.096 92.6368 19.138 92.9728 19.138C93.6354 19.138 94.1301 18.9653 94.4568 18.62C94.7928 18.284 94.9608 17.7893 94.9608 17.136V15.624H95.0868C94.9561 16.1467 94.6621 16.562 94.2048 16.87C93.7568 17.178 93.2341 17.332 92.6368 17.332C92.0208 17.332 91.4841 17.192 91.0267 16.912C90.5694 16.6227 90.2148 16.226 89.9628 15.722C89.7108 15.2087 89.5848 14.616 89.5848 13.944C89.5848 13.4307 89.6548 12.9687 89.7948 12.558C89.9441 12.138 90.1494 11.7833 90.4108 11.494C90.6814 11.1953 91.0034 10.9667 91.3768 10.808C91.7501 10.64 92.1701 10.556 92.6368 10.556C93.2434 10.556 93.7708 10.71 94.2188 11.018C94.6668 11.326 94.9561 11.7413 95.0868 12.264L94.9328 12.46V11.228C94.9328 11.0133 94.9888 10.8547 95.1008 10.752C95.2128 10.64 95.3714 10.584 95.5768 10.584C95.7728 10.584 95.9268 10.64 96.0387 10.752C96.1508 10.8547 96.2068 11.0133 96.2068 11.228V16.968C96.2068 18.0227 95.9361 18.816 95.3948 19.348C94.8628 19.88 94.0834 20.146 93.0568 20.146ZM92.9168 16.324C93.3368 16.324 93.6961 16.2307 93.9948 16.044C94.3028 15.848 94.5361 15.5727 94.6948 15.218C94.8628 14.854 94.9468 14.4293 94.9468 13.944C94.9468 13.2067 94.7648 12.628 94.4008 12.208C94.0368 11.7787 93.5421 11.564 92.9168 11.564C92.4968 11.564 92.1328 11.662 91.8248 11.858C91.5261 12.0447 91.2928 12.3153 91.1248 12.67C90.9568 13.0247 90.8728 13.4493 90.8728 13.944C90.8728 14.672 91.0548 15.2507 91.4188 15.68C91.7921 16.1093 92.2914 16.324 92.9168 16.324ZM101.147 17.626C100.475 17.626 99.8912 17.4813 99.3966 17.192C98.9019 16.9027 98.5192 16.492 98.2486 15.96C97.9779 15.428 97.8426 14.8027 97.8426 14.084C97.8426 13.5427 97.9172 13.0573 98.0666 12.628C98.2252 12.1893 98.4492 11.816 98.7386 11.508C99.0279 11.2 99.3732 10.9667 99.7746 10.808C100.185 10.64 100.643 10.556 101.147 10.556C101.819 10.556 102.402 10.7007 102.897 10.99C103.391 11.2793 103.774 11.69 104.045 12.222C104.315 12.7447 104.451 13.3653 104.451 14.084C104.451 14.6253 104.371 15.1153 104.213 15.554C104.063 15.9927 103.844 16.366 103.555 16.674C103.265 16.982 102.915 17.22 102.505 17.388C102.103 17.5467 101.651 17.626 101.147 17.626ZM101.147 16.618C101.557 16.618 101.912 16.52 102.211 16.324C102.519 16.128 102.752 15.8433 102.911 15.47C103.079 15.0967 103.163 14.6347 103.163 14.084C103.163 13.2627 102.981 12.6373 102.617 12.208C102.253 11.7787 101.763 11.564 101.147 11.564C100.745 11.564 100.391 11.662 100.083 11.858C99.7839 12.0447 99.5506 12.3247 99.3826 12.698C99.2146 13.0713 99.1306 13.5333 99.1306 14.084C99.1306 14.9053 99.3126 15.5353 99.6766 15.974C100.05 16.4033 100.54 16.618 101.147 16.618Z" fill="#757791"/>
<path d="M92.916 46.924C93.172 47.34 93.268 47.716 93.204 48.052C93.14 48.404 92.98 48.692 92.724 48.916C92.468 49.156 92.156 49.308 91.788 49.372C91.436 49.436 91.076 49.396 90.708 49.252C90.356 49.124 90.052 48.868 89.796 48.484L88.092 45.7C87.884 45.38 87.612 45.14 87.276 44.98C86.956 44.836 86.54 44.764 86.028 44.764L88.86 43.684C89.596 43.684 90.196 43.812 90.66 44.068C91.14 44.324 91.572 44.764 91.956 45.388L92.916 46.924ZM86.052 44.764C84.388 44.764 82.924 44.404 81.66 43.684C80.412 42.948 79.436 41.924 78.732 40.612C78.044 39.3 77.7 37.772 77.7 36.028C77.7 34.7 77.892 33.508 78.276 32.452C78.676 31.38 79.244 30.468 79.98 29.716C80.716 28.948 81.596 28.356 82.62 27.94C83.66 27.524 84.804 27.316 86.052 27.316C87.748 27.316 89.22 27.676 90.468 28.396C91.716 29.116 92.684 30.132 93.372 31.444C94.076 32.74 94.428 34.26 94.428 36.004C94.428 37.332 94.228 38.532 93.828 39.604C93.428 40.676 92.86 41.596 92.124 42.364C91.388 43.132 90.508 43.724 89.484 44.14C88.46 44.556 87.316 44.764 86.052 44.764ZM86.052 41.596C86.996 41.596 87.796 41.38 88.452 40.948C89.124 40.5 89.636 39.86 89.988 39.028C90.356 38.18 90.54 37.18 90.54 36.028C90.54 34.268 90.148 32.908 89.364 31.948C88.58 30.972 87.476 30.484 86.052 30.484C85.124 30.484 84.324 30.7 83.652 31.132C82.98 31.564 82.468 32.196 82.116 33.028C81.764 33.86 81.588 34.86 81.588 36.028C81.588 37.772 81.98 39.14 82.764 40.132C83.548 41.108 84.644 41.596 86.052 41.596ZM101.338 44.764C100.346 44.764 99.5216 44.58 98.8656 44.212C98.2096 43.844 97.7216 43.292 97.4016 42.556C97.0976 41.804 96.9456 40.876 96.9456 39.772V34.348C96.9456 33.74 97.0976 33.284 97.4016 32.98C97.7216 32.676 98.1696 32.524 98.7456 32.524C99.3216 32.524 99.7696 32.676 100.09 32.98C100.41 33.284 100.57 33.74 100.57 34.348V39.868C100.57 40.572 100.714 41.1 101.002 41.452C101.29 41.788 101.746 41.956 102.37 41.956C103.058 41.956 103.618 41.716 104.05 41.236C104.498 40.74 104.722 40.092 104.722 39.292V34.348C104.722 33.74 104.874 33.284 105.178 32.98C105.498 32.676 105.946 32.524 106.522 32.524C107.114 32.524 107.562 32.676 107.866 32.98C108.186 33.284 108.346 33.74 108.346 34.348V42.868C108.346 44.1 107.762 44.716 106.594 44.716C106.018 44.716 105.578 44.556 105.274 44.236C104.97 43.916 104.818 43.46 104.818 42.868V41.26L105.178 42.196C104.826 43.012 104.322 43.644 103.666 44.092C103.01 44.54 102.234 44.764 101.338 44.764ZM112.974 44.692C112.382 44.692 111.926 44.524 111.606 44.188C111.302 43.836 111.15 43.348 111.15 42.724V34.516C111.15 33.876 111.302 33.388 111.606 33.052C111.926 32.7 112.382 32.524 112.974 32.524C113.55 32.524 113.99 32.7 114.294 33.052C114.614 33.388 114.774 33.876 114.774 34.516V42.724C114.774 43.348 114.622 43.836 114.318 44.188C114.014 44.524 113.566 44.692 112.974 44.692ZM112.974 30.556C112.302 30.556 111.782 30.404 111.414 30.1C111.062 29.78 110.886 29.332 110.886 28.756C110.886 28.164 111.062 27.716 111.414 27.412C111.782 27.092 112.302 26.932 112.974 26.932C113.646 26.932 114.158 27.092 114.51 27.412C114.862 27.716 115.038 28.164 115.038 28.756C115.038 29.332 114.862 29.78 114.51 30.1C114.158 30.404 113.646 30.556 112.974 30.556ZM118.58 44.5C118.228 44.5 117.932 44.412 117.692 44.236C117.452 44.044 117.292 43.804 117.212 43.516C117.132 43.228 117.132 42.916 117.212 42.58C117.308 42.244 117.492 41.932 117.764 41.644L123.644 34.588V35.428H118.436C118.004 35.428 117.668 35.308 117.428 35.068C117.188 34.828 117.068 34.5 117.068 34.084C117.068 33.636 117.188 33.3 117.428 33.076C117.668 32.836 118.004 32.716 118.436 32.716H125.372C125.804 32.716 126.148 32.812 126.404 33.004C126.66 33.196 126.828 33.436 126.908 33.724C127.004 33.996 127.012 34.3 126.932 34.636C126.868 34.956 126.7 35.26 126.428 35.548L120.404 42.748V41.812H125.972C126.884 41.812 127.34 42.26 127.34 43.156C127.34 43.588 127.22 43.924 126.98 44.164C126.74 44.388 126.404 44.5 125.972 44.5H118.58Z" fill="#3B3E62"/>
<path d="M78.255 64.5C78.047 64.5 77.8867 64.4437 77.774 64.331C77.6613 64.2183 77.605 64.058 77.605 63.85V55.985C77.605 55.777 77.6613 55.6167 77.774 55.504C77.8867 55.3913 78.047 55.335 78.255 55.335H83.039C83.2037 55.335 83.3293 55.3783 83.416 55.465C83.5113 55.543 83.559 55.66 83.559 55.816C83.559 55.9807 83.5113 56.1063 83.416 56.193C83.3293 56.2797 83.2037 56.323 83.039 56.323H78.775V59.352H82.766C82.9307 59.352 83.0563 59.3953 83.143 59.482C83.2297 59.5687 83.273 59.69 83.273 59.846C83.273 60.0107 83.2297 60.1363 83.143 60.223C83.0563 60.301 82.9307 60.34 82.766 60.34H78.775V63.512H83.039C83.2037 63.512 83.3293 63.5553 83.416 63.642C83.5113 63.72 83.559 63.8413 83.559 64.006C83.559 64.1707 83.5113 64.2963 83.416 64.383C83.3293 64.461 83.2037 64.5 83.039 64.5H78.255ZM87.4334 64.617C86.8787 64.617 86.3891 64.487 85.9644 64.227C85.5484 63.9583 85.2234 63.577 84.9894 63.083C84.7554 62.5803 84.6384 61.9953 84.6384 61.328C84.6384 60.652 84.7511 60.0713 84.9764 59.586C85.2104 59.092 85.5354 58.715 85.9514 58.455C86.3761 58.1863 86.8701 58.052 87.4334 58.052C87.9967 58.052 88.4821 58.195 88.8894 58.481C89.2967 58.7583 89.5697 59.131 89.7084 59.599H89.5654V55.842C89.5654 55.6427 89.6131 55.4953 89.7084 55.4C89.8124 55.296 89.9597 55.244 90.1504 55.244C90.3411 55.244 90.4884 55.296 90.5924 55.4C90.6964 55.4953 90.7484 55.6427 90.7484 55.842V63.98C90.7484 64.1793 90.6964 64.331 90.5924 64.435C90.4884 64.539 90.3411 64.591 90.1504 64.591C89.9684 64.591 89.8254 64.539 89.7214 64.435C89.6174 64.331 89.5654 64.1793 89.5654 63.98V62.797L89.7084 63.031C89.5784 63.5163 89.3054 63.902 88.8894 64.188C88.4821 64.474 87.9967 64.617 87.4334 64.617ZM87.7064 63.681C88.0877 63.681 88.4171 63.59 88.6944 63.408C88.9804 63.226 89.1971 62.9617 89.3444 62.615C89.5004 62.2683 89.5784 61.8393 89.5784 61.328C89.5784 60.5653 89.4094 59.9847 89.0714 59.586C88.7334 59.1873 88.2784 58.988 87.7064 58.988C87.3337 58.988 87.0044 59.079 86.7184 59.261C86.4411 59.4343 86.2244 59.6943 86.0684 60.041C85.9124 60.3877 85.8344 60.8167 85.8344 61.328C85.8344 62.0907 86.0034 62.6757 86.3414 63.083C86.6881 63.4817 87.1431 63.681 87.7064 63.681ZM94.9073 64.617C94.396 64.617 93.967 64.5217 93.6203 64.331C93.2823 64.1403 93.031 63.8587 92.8663 63.486C92.7016 63.1133 92.6193 62.6453 92.6193 62.082V58.676C92.6193 58.4767 92.667 58.3293 92.7623 58.234C92.8663 58.13 93.0136 58.078 93.2043 58.078C93.395 58.078 93.5423 58.13 93.6463 58.234C93.7503 58.3293 93.8023 58.4767 93.8023 58.676V62.082C93.8023 62.6193 93.9106 63.018 94.1273 63.278C94.344 63.5293 94.6863 63.655 95.1543 63.655C95.6743 63.655 96.0946 63.4817 96.4153 63.135C96.7446 62.7883 96.9093 62.329 96.9093 61.757V58.676C96.9093 58.4767 96.957 58.3293 97.0523 58.234C97.1563 58.13 97.3036 58.078 97.4943 58.078C97.685 58.078 97.8323 58.13 97.9363 58.234C98.0403 58.3293 98.0923 58.4767 98.0923 58.676V63.98C98.0923 64.3873 97.9016 64.591 97.5203 64.591C97.3296 64.591 97.1823 64.539 97.0783 64.435C96.983 64.331 96.9353 64.1793 96.9353 63.98V62.849L97.1043 63.07C96.931 63.5727 96.6493 63.9583 96.2593 64.227C95.878 64.487 95.4273 64.617 94.9073 64.617ZM102.739 64.617C102.098 64.617 101.543 64.4827 101.075 64.214C100.607 63.9367 100.247 63.551 99.9959 63.057C99.7445 62.5543 99.6189 61.965 99.6189 61.289C99.6189 60.7863 99.6882 60.3357 99.8269 59.937C99.9742 59.5383 100.182 59.2003 100.451 58.923C100.72 58.637 101.045 58.4203 101.426 58.273C101.816 58.1257 102.254 58.052 102.739 58.052C103.042 58.052 103.363 58.0997 103.701 58.195C104.039 58.2903 104.351 58.4463 104.637 58.663C104.732 58.7323 104.793 58.8147 104.819 58.91C104.845 58.9967 104.845 59.0877 104.819 59.183C104.802 59.2783 104.758 59.3607 104.689 59.43C104.628 59.4907 104.546 59.5253 104.442 59.534C104.347 59.5427 104.243 59.5123 104.13 59.443C103.922 59.287 103.701 59.1743 103.467 59.105C103.242 59.0357 103.025 59.001 102.817 59.001C102.496 59.001 102.21 59.053 101.959 59.157C101.716 59.261 101.508 59.4127 101.335 59.612C101.17 59.8027 101.045 60.041 100.958 60.327C100.871 60.6043 100.828 60.9293 100.828 61.302C100.828 62.0387 101.001 62.6193 101.348 63.044C101.695 63.46 102.184 63.668 102.817 63.668C103.025 63.668 103.242 63.6377 103.467 63.577C103.692 63.5077 103.913 63.395 104.13 63.239C104.243 63.1697 104.347 63.1437 104.442 63.161C104.537 63.1697 104.615 63.2087 104.676 63.278C104.745 63.3387 104.789 63.4167 104.806 63.512C104.823 63.5987 104.815 63.6897 104.78 63.785C104.754 63.8803 104.693 63.9583 104.598 64.019C104.321 64.227 104.017 64.3787 103.688 64.474C103.359 64.5693 103.042 64.617 102.739 64.617ZM108.003 64.617C107.57 64.617 107.175 64.5303 106.82 64.357C106.473 64.1837 106.2 63.9497 106.001 63.655C105.81 63.3603 105.715 63.031 105.715 62.667C105.715 62.199 105.832 61.8307 106.066 61.562C106.3 61.2933 106.694 61.1027 107.249 60.99C107.804 60.8687 108.549 60.808 109.485 60.808H110.096V61.562H109.511C108.844 61.562 108.315 61.5923 107.925 61.653C107.544 61.7137 107.275 61.822 107.119 61.978C106.963 62.1253 106.885 62.3333 106.885 62.602C106.885 62.94 107.002 63.2173 107.236 63.434C107.479 63.6507 107.808 63.759 108.224 63.759C108.553 63.759 108.844 63.681 109.095 63.525C109.346 63.3603 109.546 63.1437 109.693 62.875C109.84 62.5977 109.914 62.2813 109.914 61.926V60.431C109.914 59.9197 109.81 59.5513 109.602 59.326C109.394 59.092 109.043 58.975 108.549 58.975C108.263 58.975 107.968 59.014 107.665 59.092C107.362 59.17 107.045 59.2913 106.716 59.456C106.586 59.5167 106.473 59.5383 106.378 59.521C106.283 59.495 106.205 59.443 106.144 59.365C106.092 59.2783 106.062 59.1873 106.053 59.092C106.053 58.988 106.075 58.8883 106.118 58.793C106.17 58.6977 106.257 58.6283 106.378 58.585C106.759 58.3943 107.136 58.26 107.509 58.182C107.89 58.0953 108.246 58.052 108.575 58.052C109.138 58.052 109.602 58.143 109.966 58.325C110.33 58.4983 110.603 58.7713 110.785 59.144C110.967 59.508 111.058 59.976 111.058 60.548V63.98C111.058 64.1793 111.01 64.331 110.915 64.435C110.82 64.539 110.681 64.591 110.499 64.591C110.326 64.591 110.187 64.539 110.083 64.435C109.988 64.331 109.94 64.1793 109.94 63.98V63.057H110.057C109.988 63.3777 109.858 63.655 109.667 63.889C109.476 64.123 109.238 64.305 108.952 64.435C108.675 64.5563 108.358 64.617 108.003 64.617ZM115.663 64.617C115.021 64.617 114.467 64.4827 113.999 64.214C113.531 63.9367 113.171 63.551 112.92 63.057C112.668 62.5543 112.543 61.965 112.543 61.289C112.543 60.7863 112.612 60.3357 112.751 59.937C112.898 59.5383 113.106 59.2003 113.375 58.923C113.643 58.637 113.968 58.4203 114.35 58.273C114.74 58.1257 115.177 58.052 115.663 58.052C115.966 58.052 116.287 58.0997 116.625 58.195C116.963 58.2903 117.275 58.4463 117.561 58.663C117.656 58.7323 117.717 58.8147 117.743 58.91C117.769 58.9967 117.769 59.0877 117.743 59.183C117.725 59.2783 117.682 59.3607 117.613 59.43C117.552 59.4907 117.47 59.5253 117.366 59.534C117.27 59.5427 117.166 59.5123 117.054 59.443C116.846 59.287 116.625 59.1743 116.391 59.105C116.165 59.0357 115.949 59.001 115.741 59.001C115.42 59.001 115.134 59.053 114.883 59.157C114.64 59.261 114.432 59.4127 114.259 59.612C114.094 59.8027 113.968 60.041 113.882 60.327C113.795 60.6043 113.752 60.9293 113.752 61.302C113.752 62.0387 113.925 62.6193 114.272 63.044C114.618 63.46 115.108 63.668 115.741 63.668C115.949 63.668 116.165 63.6377 116.391 63.577C116.616 63.5077 116.837 63.395 117.054 63.239C117.166 63.1697 117.27 63.1437 117.366 63.161C117.461 63.1697 117.539 63.2087 117.6 63.278C117.669 63.3387 117.712 63.4167 117.73 63.512C117.747 63.5987 117.738 63.6897 117.704 63.785C117.678 63.8803 117.617 63.9583 117.522 64.019C117.244 64.227 116.941 64.3787 116.612 64.474C116.282 64.5693 115.966 64.617 115.663 64.617ZM119.548 64.565C119.366 64.565 119.223 64.5087 119.119 64.396C119.015 64.2833 118.963 64.1273 118.963 63.928V58.741C118.963 58.533 119.015 58.377 119.119 58.273C119.223 58.1603 119.366 58.104 119.548 58.104C119.738 58.104 119.886 58.1603 119.99 58.273C120.094 58.377 120.146 58.533 120.146 58.741V63.928C120.146 64.1273 120.094 64.2833 119.99 64.396C119.894 64.5087 119.747 64.565 119.548 64.565ZM119.548 56.7C119.314 56.7 119.127 56.6393 118.989 56.518C118.859 56.388 118.794 56.219 118.794 56.011C118.794 55.7857 118.859 55.6167 118.989 55.504C119.127 55.3827 119.314 55.322 119.548 55.322C119.799 55.322 119.985 55.3827 120.107 55.504C120.237 55.6167 120.302 55.7857 120.302 56.011C120.302 56.219 120.237 56.388 120.107 56.518C119.985 56.6393 119.799 56.7 119.548 56.7ZM124.739 64.617C124.115 64.617 123.573 64.4827 123.114 64.214C122.654 63.9453 122.299 63.564 122.048 63.07C121.796 62.576 121.671 61.9953 121.671 61.328C121.671 60.8253 121.74 60.3747 121.879 59.976C122.026 59.5687 122.234 59.222 122.503 58.936C122.771 58.65 123.092 58.4333 123.465 58.286C123.846 58.13 124.271 58.052 124.739 58.052C125.363 58.052 125.904 58.1863 126.364 58.455C126.823 58.7237 127.178 59.105 127.43 59.599C127.681 60.0843 127.807 60.6607 127.807 61.328C127.807 61.8307 127.733 62.2857 127.586 62.693C127.447 63.1003 127.243 63.447 126.975 63.733C126.706 64.019 126.381 64.24 126 64.396C125.627 64.5433 125.207 64.617 124.739 64.617ZM124.739 63.681C125.12 63.681 125.449 63.59 125.727 63.408C126.013 63.226 126.229 62.9617 126.377 62.615C126.533 62.2683 126.611 61.8393 126.611 61.328C126.611 60.5653 126.442 59.9847 126.104 59.586C125.766 59.1873 125.311 58.988 124.739 58.988C124.366 58.988 124.037 59.079 123.751 59.261C123.473 59.4343 123.257 59.6943 123.101 60.041C122.945 60.3877 122.867 60.8167 122.867 61.328C122.867 62.0907 123.036 62.6757 123.374 63.083C123.72 63.4817 124.175 63.681 124.739 63.681ZM129.907 64.591C129.725 64.591 129.582 64.539 129.478 64.435C129.374 64.331 129.322 64.1793 129.322 63.98V58.676C129.322 58.4767 129.374 58.3293 129.478 58.234C129.582 58.13 129.725 58.078 129.907 58.078C130.089 58.078 130.228 58.13 130.323 58.234C130.427 58.3293 130.479 58.4767 130.479 58.676V59.742L130.336 59.547C130.518 59.053 130.813 58.6803 131.22 58.429C131.636 58.1777 132.108 58.052 132.637 58.052C133.148 58.052 133.569 58.143 133.898 58.325C134.227 58.507 134.474 58.7843 134.639 59.157C134.804 59.5297 134.886 60.002 134.886 60.574V63.98C134.886 64.1793 134.834 64.331 134.73 64.435C134.635 64.539 134.492 64.591 134.301 64.591C134.11 64.591 133.963 64.539 133.859 64.435C133.755 64.331 133.703 64.1793 133.703 63.98V60.639C133.703 60.0757 133.595 59.664 133.378 59.404C133.161 59.144 132.815 59.014 132.338 59.014C131.783 59.014 131.337 59.1873 130.999 59.534C130.67 59.872 130.505 60.3313 130.505 60.912V63.98C130.505 64.3873 130.306 64.591 129.907 64.591ZM138.777 64.617C138.343 64.617 137.949 64.5303 137.594 64.357C137.247 64.1837 136.974 63.9497 136.775 63.655C136.584 63.3603 136.489 63.031 136.489 62.667C136.489 62.199 136.606 61.8307 136.84 61.562C137.074 61.2933 137.468 61.1027 138.023 60.99C138.577 60.8687 139.323 60.808 140.259 60.808H140.87V61.562H140.285C139.617 61.562 139.089 61.5923 138.699 61.653C138.317 61.7137 138.049 61.822 137.893 61.978C137.737 62.1253 137.659 62.3333 137.659 62.602C137.659 62.94 137.776 63.2173 138.01 63.434C138.252 63.6507 138.582 63.759 138.998 63.759C139.327 63.759 139.617 63.681 139.869 63.525C140.12 63.3603 140.319 63.1437 140.467 62.875C140.614 62.5977 140.688 62.2813 140.688 61.926V60.431C140.688 59.9197 140.584 59.5513 140.376 59.326C140.168 59.092 139.817 58.975 139.323 58.975C139.037 58.975 138.742 59.014 138.439 59.092C138.135 59.17 137.819 59.2913 137.49 59.456C137.36 59.5167 137.247 59.5383 137.152 59.521C137.056 59.495 136.978 59.443 136.918 59.365C136.866 59.2783 136.835 59.1873 136.827 59.092C136.827 58.988 136.848 58.8883 136.892 58.793C136.944 58.6977 137.03 58.6283 137.152 58.585C137.533 58.3943 137.91 58.26 138.283 58.182C138.664 58.0953 139.019 58.052 139.349 58.052C139.912 58.052 140.376 58.143 140.74 58.325C141.104 58.4983 141.377 58.7713 141.559 59.144C141.741 59.508 141.832 59.976 141.832 60.548V63.98C141.832 64.1793 141.784 64.331 141.689 64.435C141.593 64.539 141.455 64.591 141.273 64.591C141.099 64.591 140.961 64.539 140.857 64.435C140.761 64.331 140.714 64.1793 140.714 63.98V63.057H140.831C140.761 63.3777 140.631 63.655 140.441 63.889C140.25 64.123 140.012 64.305 139.726 64.435C139.448 64.5563 139.132 64.617 138.777 64.617ZM145.682 64.617C145.032 64.617 144.538 64.4263 144.2 64.045C143.862 63.655 143.693 63.096 143.693 62.368V55.842C143.693 55.6427 143.745 55.4953 143.849 55.4C143.953 55.296 144.096 55.244 144.278 55.244C144.469 55.244 144.616 55.296 144.72 55.4C144.824 55.4953 144.876 55.6427 144.876 55.842V62.277C144.876 62.7277 144.967 63.0657 145.149 63.291C145.34 63.5077 145.608 63.616 145.955 63.616C146.033 63.616 146.102 63.616 146.163 63.616C146.224 63.6073 146.284 63.5987 146.345 63.59C146.44 63.5813 146.51 63.6073 146.553 63.668C146.596 63.7287 146.618 63.85 146.618 64.032C146.618 64.1967 146.579 64.3267 146.501 64.422C146.432 64.5087 146.315 64.565 146.15 64.591C146.072 64.5997 145.994 64.604 145.916 64.604C145.838 64.6127 145.76 64.617 145.682 64.617Z" fill="#757791"/>
<defs>
<clipPath id="clip0_1_1104">
<rect width="72" height="72" fill="white" transform="translate(0.5 0.5)"/>
</clipPath>
</defs>
</svg>
